<svg width="182" height="218" viewBox="0 0 182 218" fill="none" xmlns="http://www.w3.org/2000/svg">
<g clip-path="url(#clip0_6_11)">
<path opacity="0.961" fill-rule="evenodd" clip-rule="evenodd" d="M88.5 -0.5C89.8333 -0.5 91.1667 -0.5 92.5 -0.5C103.107 6.47768 114.107 12.9777 125.5 19C129.719 21.552 132.886 25.052 135 29.5C135.667 40.5 135.667 51.5 135 62.5C122.249 54.8738 109.415 47.3738 96.5 40C93.9426 37.1078 91.776 33.9411 90 30.5C88.6159 34.7575 86.1159 38.2575 82.5 41C70 48.1667 57.5 55.3333 45 62.5C44.3333 52.1667 44.3333 41.8333 45 31.5C45.8061 28.5544 47.1395 25.8877 49 23.5C62.1471 15.3488 75.3138 7.3488 88.5 -0.5Z" fill="black"/>
<path opacity="0.971" fill-rule="evenodd" clip-rule="evenodd" d="M181.5 57.5C181.5 91.8333 181.5 126.167 181.5 160.5C169.644 154.989 158.478 148.322 148 140.5C146.561 138.725 145.561 136.725 145 134.5C144.667 127.833 144.333 121.167 144 114.5C125.837 124.581 107.837 134.914 90 145.5C72.3333 135.167 54.6667 124.833 37 114.5C36.6667 120.167 36.3333 125.833 36 131.5C35.0719 137.187 32.2386 141.687 27.5 145C18.2769 150.395 8.94353 155.562 -0.5 160.5C-0.5 125.5 -0.5 90.5 -0.5 55.5C1.54988 51.9386 4.21655 48.772 7.5 46C16.7061 40.6328 26.0394 35.4661 35.5 30.5C36.1667 46.1667 36.8333 61.8333 37.5 77.5C52.7042 86.5331 68.0376 95.3664 83.5 104C86.5314 106.559 88.6981 109.726 90 113.5C91.4086 110.418 93.2419 107.585 95.5 105C111.749 95.6261 127.916 86.1261 144 76.5C144.167 61.1558 144.667 45.8225 145.5 30.5C155.167 36 164.833 41.5 174.5 47C177.512 50.154 179.845 53.654 181.5 57.5Z" fill="black"/>
<path opacity="0.96" fill-rule="evenodd" clip-rule="evenodd" d="M91.5 217.5C90.8333 217.5 90.1667 217.5 89.5 217.5C63.2294 202.36 36.8961 187.194 10.5 172C18.8399 166.495 27.5065 161.495 36.5 157C41.5893 156.174 46.5893 156.508 51.5 158C61.6696 164.252 72.0029 170.252 82.5 176C86.1938 178.687 88.6938 182.187 90 186.5C91.3957 182.208 93.8957 178.708 97.5 176C108.833 169.667 120.167 163.333 131.5 157C136.589 156.174 141.589 156.508 146.5 158C154.167 162.5 161.833 167 169.5 171.5C143.743 187.259 117.743 202.593 91.5 217.5Z" fill="black"/>
</g>
<defs>
<clipPath id="clip0_6_11">
<rect width="182" height="218" fill="white"/>
</clipPath>
</defs>
</svg>
